<svg width="0" height="0" class="icon">
  <symbol xmlns="http://www.w3.org/2000/svg" viewBox="0 0 16 16" id="cogs">
    <path d="M12 7V5l-1.2-.4c-.1-.3-.2-.7-.4-1l.6-1.2-1.5-1.3-1.1.5c-.3-.2-.6-.3-1-.4L7 0H5l-.4 1.2c-.3.1-.7.2-1 .4l-1.1-.5-1.4 1.4.6 1.2c-.2.3-.3.6-.4 1L0 5v2l1.2.4c.1.3.2.7.4 1l-.5 1.1 1.4 1.4 1.2-.6c.3.2.6.3 1 .4L5 12h2l.4-1.2c.3-.1.7-.2 1-.4l1.2.6L11 9.6l-.6-1.2c.2-.3.3-.6.4-1L12 7zM3 6c0-1.7 1.3-3 3-3s3 1.3 3 3-1.3 3-3 3-3-1.3-3-3z"></path>
    <path d="M7.5 6a1.5 1.5 0 1 1-3.001-.001A1.5 1.5 0 0 1 7.5 6zM16 3V2h-.6c0-.2-.1-.4-.2-.5l.4-.4-.7-.7-.4.4c-.2-.1-.3-.2-.5-.2V0h-1v.6c-.2 0-.4.1-.5.2l-.4-.4-.7.7.4.4c-.1.2-.2.3-.2.5H11v1h.6c0 .2.1.4.2.5l-.4.4.7.7.4-.4c.2.1.3.2.5.2V5h1v-.6c.2 0 .4-.1.5-.2l.4.4.7-.7-.4-.4c.1-.2.2-.3.2-.5h.6zm-2.5.5c-.6 0-1-.4-1-1s.4-1 1-1 1 .4 1 1-.4 1-1 1zM15.4 11.8c-.1-.3-.2-.6-.4-.9l.3-.6-.7-.7-.5.4c-.3-.2-.6-.3-.9-.4L13 9h-1l-.2.6c-.3.1-.6.2-.9.4l-.6-.3-.7.7.3.6c-.2.3-.3.6-.4.9L9 12v1l.6.2c.1.3.2.6.4.9l-.3.6.7.7.6-.3c.3.2.6.3.9.4l.1.5h1l.2-.6c.3-.1.6-.2.9-.4l.6.3.7-.7-.4-.5c.2-.3.3-.6.4-.9l.6-.2v-1l-.6-.2zM12.5 14c-.8 0-1.5-.7-1.5-1.5s.7-1.5 1.5-1.5 1.5.7 1.5 1.5-.7 1.5-1.5 1.5z"></path>
  </symbol>
  <symbol version="1.1" id="customers" xmlns="http://www.w3.org/2000/svg" viewBox="0 0 512 512">
    <path d="m 254.86561,308.60599 c -35.27367,0 -105.06331,16.95064 -105.06331,51.59339 V 400 h 212.26995 v -39.80062 c 0,-34.64275 -71.93519,-51.59339 -107.20664,-51.59339 z m 120.07108,8.10975 c -4.49968,0 -7.61002,0 -12.86444,0.73484 17.2661,12.53129 23.58555,20.63735 23.58555,42.7488 V 400 H 480 v -39.80062 c 0,-34.64275 -69.78964,-43.48364 -105.06331,-43.48364 z" id="path2" sodipodiNodetypes="ssccssscsccss"></path>
    <circle id="path267" cx="257.05432" cy="229.24789" r="57.846844"></circle>
    <circle id="path267-3" cx="382.19241" cy="243.50661" r="50.35841"></circle>
    <circle id="path267-3-6" cx="131.91623" cy="243.50661" r="50.35841"></circle>
    <path d="m 138.71903,316.07277 c 4.49968,0 7.61002,0 12.86444,0.73484 -17.2661,12.53129 -23.58555,20.63735 -23.58555,42.7488 v 39.80062 H 33.655722 v -39.80062 c 0,-34.64275 69.789638,-43.48364 105.063308,-43.48364 z" id="path2-3" sodipodiNodetypes="scsccss"></path>
  </symbol>
  <symbol xmlns="http://www.w3.org/2000/svg" viewBox="0 0 1792 1792" id="dashboard">
    <path d="M384 1152q0-53-37.5-90.5T256 1024t-90.5 37.5T128 1152t37.5 90.5T256 1280t90.5-37.5T384 1152zm192-448q0-53-37.5-90.5T448 576t-90.5 37.5T320 704t37.5 90.5T448 832t90.5-37.5T576 704zm428 481 101-382q6-26-7.5-48.5T1059 725t-48 6.5-30 39.5l-101 382q-60 5-107 43.5t-63 98.5q-20 77 20 146t117 89 146-20 89-117q16-60-6-117t-72-91zm660-33q0-53-37.5-90.5T1536 1024t-90.5 37.5-37.5 90.5 37.5 90.5 90.5 37.5 90.5-37.5 37.5-90.5zm-640-640q0-53-37.5-90.5T896 384t-90.5 37.5T768 512t37.5 90.5T896 640t90.5-37.5T1024 512zm448 192q0-53-37.5-90.5T1344 576t-90.5 37.5T1216 704t37.5 90.5T1344 832t90.5-37.5T1472 704zm320 448q0 261-141 483-19 29-54 29H195q-35 0-54-29Q0 1414 0 1152q0-182 71-348t191-286 286-191 348-71 348 71 286 191 191 286 71 348z"></path>
  </symbol>
  <symbol xmlns="http://www.w3.org/2000/svg" viewBox="0 0 24 24" id="document">
    <path d="M9,10h1a1,1,0,0,0,0-2H9a1,1,0,0,0,0,2Zm0,2a1,1,0,0,0,0,2h6a1,1,0,0,0,0-2ZM20,8.94a1.31,1.31,0,0,0-.06-.27l0-.09a1.07,1.07,0,0,0-.19-.28h0l-6-6h0a1.07,1.07,0,0,0-.28-.19.32.32,0,0,0-.09,0A.88.88,0,0,0,13.05,2H7A3,3,0,0,0,4,5V19a3,3,0,0,0,3,3H17a3,3,0,0,0,3-3V9S20,9,20,8.94ZM14,5.41,16.59,8H15a1,1,0,0,1-1-1ZM18,19a1,1,0,0,1-1,1H7a1,1,0,0,1-1-1V5A1,1,0,0,1,7,4h5V7a3,3,0,0,0,3,3h3Zm-3-3H9a1,1,0,0,0,0,2h6a1,1,0,0,0,0-2Z"></path>
  </symbol>
  <symbol xmlns="http://www.w3.org/2000/svg" viewBox="0 0 24 24" id="euro">
    <path d="M15 18.5c-2.51 0-4.68-1.42-5.76-3.5H14c.55 0 1-.45 1-1s-.45-1-1-1H8.58c-.05-.33-.08-.66-.08-1s.03-.67.08-1H14c.55 0 1-.45 1-1s-.45-1-1-1H9.24C10.32 6.92 12.5 5.5 15 5.5c1.25 0 2.42.36 3.42.97.5.31 1.15.26 1.57-.16.58-.58.45-1.53-.25-1.96C18.36 3.5 16.73 3 15 3c-3.92 0-7.24 2.51-8.48 6H4c-.55 0-1 .45-1 1s.45 1 1 1h2.06c-.04.33-.06.66-.06 1s.02.67.06 1H4c-.55 0-1 .45-1 1s.45 1 1 1h2.52c1.24 3.49 4.56 6 8.48 6 1.74 0 3.36-.49 4.74-1.35.69-.43.82-1.39.24-1.97-.42-.42-1.07-.47-1.57-.15-.99.62-2.15.97-3.41.97z"></path>
  </symbol>
  <symbol version="1.1" id="person" sodipodiDocname="person.svg" inkscapeVersion="1.2.2 (b0a8486541, 2022-12-01)" xmlnsInkscape="http://www.inkscape.org/namespaces/inkscape" xmlnsSodipodi="http://sodipodi.sourceforge.net/DTD/sodipodi-0.dtd" xmlns="http://www.w3.org/2000/svg" xmlnsSvg="http://www.w3.org/2000/svg" viewBox="0 0 24 24">
    <path d="m 12,14 c -2.67,0 -8,1.34 -8,4 v 1 c 0,0.55 0.45,1 1,1 h 14 c 0.55,0 1,-0.45 1,-1 v -1 c 0,-2.66 -5.33,-4 -8,-4 z" id="path4" sodipodiNodetypes="ssssssss"></path>
    <circle id="path318" cx="12" cy="8.6313086" r="4"></circle>
  </symbol>
  <symbol xmlns="http://www.w3.org/2000/svg" viewBox="0 0 48 48" id="truck">
    <path d="M40 16h-6V8H6c-2.21 0-4 1.79-4 4v22h4c0 3.31 2.69 6 6 6s6-2.69 6-6h12c0 3.31 2.69 6 6 6s6-2.69 6-6h4V24l-6-8zM12 37c-1.66 0-3-1.34-3-3s1.34-3 3-3 3 1.34 3 3-1.34 3-3 3zm27-18 3.93 5H34v-5h5zm-3 18c-1.66 0-3-1.34-3-3s1.34-3 3-3 3 1.34 3 3-1.34 3-3 3z"></path>
  </symbol>
  <symbol version="1.1" id="users" sodipodiDocname="users.svg" inkscapeVersion="1.2.2 (b0a8486541, 2022-12-01)" xmlnsInkscape="http://www.inkscape.org/namespaces/inkscape" xmlnsSodipodi="http://sodipodi.sourceforge.net/DTD/sodipodi-0.dtd" xmlns="http://www.w3.org/2000/svg" xmlnsSvg="http://www.w3.org/2000/svg" viewBox="0 0 512 512">
    <path d="M 174.546,276 C 126.688,276 32,298.998 32,346 v 54 h 288 v -54 c 0,-47.002 -97.599,-70 -145.454,-70 z m 162.908,11.003 c -6.105,0 -10.325,0 -17.454,0.997 23.426,17.002 32,28 32,58 v 54 h 128 v -54 c 0,-47.002 -94.688,-58.997 -142.546,-58.997 z" id="path2" sodipodiNodetypes="ssccssscsccss"></path>
    <circle id="path267" cx="177.51555" cy="168.32988" r="78.484451"></circle>
    <circle id="path267-3" cx="347.29828" cy="187.67557" r="68.324425"></circle>
  </symbol>
</svg>